<?xml version="1.0" encoding="UTF-8"?>
<svg id="Ebene_1" xmlns="http://www.w3.org/2000/svg" version="1.1" viewBox="0 0 65.28 65.28">
  <!-- Generator: Adobe Illustrator 29.6.1, SVG Export Plug-In . SVG Version: 2.1.1 Build 9)  -->
  <g>
    <path d="M30.94,45.69c-1.79,3.49-5.29,8.28-6.78,11.75-.37.86-1.31,5.49-1.57,5.62-1.04.54-.84-1.93-.73-2.57.38-2.15,1.49-4.09,2.45-5.96,4.05-7.91,9.86-17.45,11.99-26.22.11-.46.69-3.22.59-3.37-.03-.05-.65.37-1.2.03-.72-.45,2.01-10.47,1.14-10.37.05.98-3.16,14.79-4.46,14.28-.34-.13-.16-.95-.66-.77-.44.16-1.49,2.49-2.1,0-.38-1.57.77-3.54.99-5.24.08-.62.35-1.74-.31-2.08-1.2,2.38-1.6,5.39-3.32,7.48-1.52,1.84-1.62-.45-2.2-.5-.47-.04-.91,3.06-2.22,2.1-.92-.67.3-2.78.19-3.72-1,.39-1.22,2.38-2.38,2.45-2.31.15-.64-3.61-.65-4.74,0-.34-.1-.7-.45-.4-.83,2.34-1.92,4.87-3.46,6.78-.48.11-1.28.27-1.49-.3-.09-.25.37-4.05.49-4.56.15-.65.67-1.11.75-1.44.03-.13.1-1.46-.41-1.31-.83,1.24-1.25,2.66-1.96,3.97-.22.4-1.22,1.34-1.24,1.43-.29,1.38-.34,1.93-1.24,3.23-1.11,1.58-3.39,3.24-3.12-.03.37-4.54,3.51-12.52,4.89-17.28.18-.61.31-1.37.71-2.04.48-.82.74-2.5,1.17-3.34.21-.42,1.13-.38.81-1.65l.47.16c.12-.14-.79-1.5.22-1.18.86.28.07,1.52,0,1.82-1.42,6.09-3.86,12.28-5.5,18.41-.41,1.54-1.31,3.01-1.05,4.65,1.27-.65,1.36-2.15,1.89-3.13.82-1.52,1.79-2.77,2.47-4.41.6-1.43.93-3.64,1.93-5.05.54-.76,1.23-1.01,1.25.15.03,1.4-.25,3.83-.45,5.26-.19,1.35-.92,2.72-.85,4.24.02.33.07.71.44.39.09-.07.93-1.73,1.06-2.02,1.04-2.19,2.43-5.49,3.17-7.78.38-1.18.67-3.84,1.08-4.69.3-.61,1.26-.52,1.16.76-.14,1.86-.97,4.23-1.26,6.14-.31,2-.22,4.07-.76,6.05.68.19.4-.17.58-.48,1.41-2.37,1.64-3.9,2.33-6.43.2-.74.48-2.83,1.21-3.02.2-.05.99,0,1.03.05.2.23-.46,3.08-.56,3.66l.07,2.06,2.13-7.57c1.6-1.15,1.39.61,1.26,1.75-.34,2.81-1.33,5.08-1.79,7.58-.11.58.14,1.48-.13,2.21.31-.21.49-.5.61-.85.85-2.35,1.55-4.89,2.58-7.18.12-.26,1.28-1.85,1.38-1.9,1.31-.75.65,4.54.73,5.02.07.43-.21.66.47.6l1.36-5.87c1.87-1.25,1.57-2.64,2.22-4.44.26-.7.91-1.87,1.26-2.46,1.98.97,1.24-1.75,1.77-2.47.17-.23,1.33-.17,1.4.24.25,1.57-1.35,6.28-1.67,8.22-.04.26-.29,1.09.14,1.09,1.06-3.02,1.86-5.85,3.43-8.66.51-.91,1.21-2.14,1.78-3.12.2-.33.78-.54.97-.95.16-.35,0-2.02,1.35-1.49,1.09.43-1.06,3.88-1.34,4.66-1.38,3.77-2.31,7.71-3.56,11.52-3.15,9.62-5.86,18.2-10.51,27.28Z"/>
    <path d="M45.82,15.39c.26.29-.86,6.97-1.1,7.97-.29,1.21-1.02,3.4-1.76,4.73-.19.34,0,.6-.62.43l2.99-12.65-.21-.31-.32-.8-.4-.05-.2.38c-.15.84-1.22,2.29-1.46,3.28-.54,2.28-1.35,5.72-1.65,8.01-.1.74-.45,4.06-.04,4.46.71.69,1.64-.12,2.12-.68.76-.88.91-2.08,1.68-2.86,0,1.25-.3,5.22,1.8,4.1s3.46-6.63,3.83-6.74c.86-.25.13,1.24.12,1.31-.07.85-.25,1.91-.29,2.63-.14,2.74,1.33,3.39,2.86,1.09l3.77-9.04c.54-.34.92,4.62,1.04,4.98.53,1.69,2.31,1.7,2.11,3.2.71-.63,3.42-.18,2.91-1.67-.44-1.29-1.71-.21-2.24-.55-1.52-.95-2.25-6.41-2.4-8.16-.08-.94.63-2.23-.65-2.3-1.36-.08-1.37,2.04-1.75,2.92-.28.65-.85,1.35-1.11,2.04-.9,2.37-1.22,5.68-3.14,7.48-.1-3.27,1.11-6.95,1.09-10.1,0-.84.08-2.32-1.11-2.15-.15.02-1.23,2.5-1.29,2.73-.6,2.34-1.11,4.66-2.04,6.79-.42.96-.76,2.14-1.41,2.98-.12.15-.28.71-.56.26-.11-.18-.03-3.68.01-4.2.16-2.23,1.01-4.73,1.18-6.85.04-.55-.1-5.03-.31-5.18-.05-.03-.83.22-1.21.94-.29.53-.21,1.57-.21,1.57"/>
  </g>
  <path d="M43.01,20.4"/>
</svg>